<svg width="33" height="32" viewBox="0 0 33 32" fill="none" xmlns="http://www.w3.org/2000/svg">
<path d="M16.0375 29.3334C23.4051 29.3334 29.3778 23.3638 29.3778 16C29.3778 8.63622 23.4051 2.66669 16.0375 2.66669C8.66985 2.66669 2.6972 8.63622 2.6972 16C2.6972 23.3638 8.66985 29.3334 16.0375 29.3334Z" stroke="#DEDEDE" stroke-width="2" stroke-linecap="round" stroke-linejoin="round"/>
<path d="M12.1555 12C12.4692 11.1089 13.0882 10.3575 13.903 9.87887C14.7179 9.40024 15.6759 9.22528 16.6074 9.38498C17.5389 9.54467 18.3839 10.0287 18.9925 10.7514C19.6012 11.4741 19.9343 12.3887 19.9329 13.3334C19.9329 16 15.9308 17.3334 15.9308 17.3334" stroke="#DEDEDE" stroke-width="2" stroke-linecap="round" stroke-linejoin="round"/>
<path d="M16.0375 22.6667H16.0477" stroke="#DEDEDE" stroke-width="2" stroke-linecap="round" stroke-linejoin="round"/>
</svg>
