<svg width="29" height="26" viewBox="0 0 29 26" fill="none" xmlns="http://www.w3.org/2000/svg">
<path d="M8.15895 10.2143C7.15654 10.2143 6.34669 11.0442 6.34669 12.0714C6.34669 13.0987 7.15654 13.9286 8.15895 13.9286C9.16136 13.9286 9.97122 13.0987 9.97122 12.0714C9.97122 11.0442 9.16136 10.2143 8.15895 10.2143ZM14.5019 10.2143C13.4995 10.2143 12.6896 11.0442 12.6896 12.0714C12.6896 13.0987 13.4995 13.9286 14.5019 13.9286C15.5043 13.9286 16.3141 13.0987 16.3141 12.0714C16.3141 11.0442 15.5043 10.2143 14.5019 10.2143ZM20.8448 10.2143C19.8424 10.2143 19.0325 11.0442 19.0325 12.0714C19.0325 13.0987 19.8424 13.9286 20.8448 13.9286C21.8472 13.9286 22.6571 13.0987 22.6571 12.0714C22.6571 11.0442 21.8472 10.2143 20.8448 10.2143ZM14.5019 0C6.49394 0 0.0037608 5.40312 0.0037608 12.0714C0.0037608 14.8339 1.13076 17.3643 2.99966 19.4013C2.15583 21.6879 0.400194 23.6263 0.371877 23.6496C-0.00190252 24.0558 -0.103842 24.6478 0.111364 25.1585C0.326571 25.6692 0.81928 26 1.36296 26C4.84591 26 7.59262 24.5085 9.24065 23.3129C10.8774 23.8411 12.6443 24.1429 14.5019 24.1429C22.5098 24.1429 29 18.7397 29 12.0714C29 5.40312 22.5098 0 14.5019 0ZM14.5019 21.3571C12.9898 21.3571 11.4947 21.1192 10.0618 20.6549L8.77626 20.2371L7.67191 21.0379C6.86205 21.6241 5.75204 22.2799 4.41549 22.721C4.82892 22.0187 5.23101 21.2295 5.5425 20.3879L6.14281 18.7571L4.97616 17.492C3.9511 16.3719 2.72216 14.5205 2.72216 12.0714C2.72216 6.95268 8.00604 2.78571 14.5019 2.78571C20.9977 2.78571 26.2816 6.95268 26.2816 12.0714C26.2816 17.1902 20.9977 21.3571 14.5019 21.3571Z" fill="#DEDEDE"/>
</svg>
