<?xml version="1.0" standalone="no"?>
<svg xmlns="http://www.w3.org/2000/svg" viewBox="0 0 229.4296875 50.953125" width="229.4296875" height="50.953125"><rect fill="none" stroke="#72CBA9" stroke-width="4" width="225.4296875" height="46.953125" x="2" y="2"></rect><g fill="#8DCCFC" color="#8DCCFC" transform="translate(190.477 12.001) scale(0.5183294)"><svg width="52.0" height="52.0" x="0.0" y="0.0" viewBox="0 0 52 52"><path fill="currentColor" fill-rule="nonzero" d="M39.13 23.04a40.133 40.133 0 0 0-7.93 6.14c-2.55 2.54-4.26 4.89-5.21 6.34a39.72 39.72 0 0 0-5.21-6.34c-2.41-2.4-5.08-4.46-7.93-6.14a37.984 37.984 0 0 0-10.53-4.23c.32-1.46 1.16-3.87 2.85-6.27 1.54-2.18 3.54-4.06 5.96-5.58 2.84-1.79 6.27-3.09 10.2-3.87.94 2.5 3.78 10.41 3.78 14.94 0 .56.46 1.01 1.02 1.01s1.02-.45 1.02-1.01c0-4.53 2.64-12.41 3.53-14.94 3.92.78 7.34 2.08 10.18 3.86 2.41 1.52 4.42 3.4 5.96 5.58 1.69 2.4 2.53 4.82 2.85 6.27-3.71.88-7.25 2.31-10.54 4.24m12.72-3.55c-.01-.16-.4-3.87-3.29-8.02-1.69-2.43-3.89-4.51-6.53-6.19C38.75 3.2 34.77 1.74 30.2.93c-.49-.09-.96.19-1.13.65-.11.29-1.83 4.93-2.96 9.71-1.21-4.79-3.05-9.45-3.17-9.73a1.03 1.03 0 0 0-1.13-.63c-4.57.81-8.55 2.27-11.83 4.35-2.65 1.68-4.85 3.76-6.53 6.19C.56 15.62.18 19.34.16 19.49c-.05.51.3.98.81 1.09 3.82.8 7.46 2.2 10.83 4.18 2.7 1.58 5.23 3.53 7.51 5.8 3.43 3.4 5.29 6.5 5.71 7.24v12.27c0 .56.46 1.01 1.02 1.01s1.02-.45 1.02-1.01V37.71c.5-.87 2.35-3.87 5.66-7.15 2.29-2.27 4.81-4.22 7.51-5.8 3.36-1.97 7.01-3.38 10.83-4.18.49-.1.83-.57.79-1.09"></path></svg></g><path fill="#8DCCFC" fill-rule="nonzero" d="M23.28 10.76L23.34 10.80Q22.97 11.46 22.97 13.98L22.97 13.98L22.97 20.04Q22.97 22.79 20.12 24.82L20.12 24.82Q17.17 26.95 12.89 26.95L12.89 26.95Q6.95 26.95 3.42 23.22L3.42 23.22Q0 19.67 0 14.16L0 14.16Q0 8.30 3.48 4.39L3.48 4.39Q7.36 0 14.18 0L14.18 0Q18.73 0 21.39 1.76L21.39 1.76L21.07 7.52L20.92 7.56Q20.23 6.37 18.22 5.61L18.22 5.61Q16.31 4.88 14.21 4.88Q12.11 4.88 10.54 5.55Q8.96 6.21 7.87 7.44L7.87 7.44Q5.57 9.96 5.57 14.10L5.57 14.10Q5.57 17.71 7.60 19.90L7.60 19.90Q9.63 22.07 12.83 22.07L12.83 22.07Q16.37 22.07 17.60 20.23L17.60 20.23Q17.99 19.65 17.99 18.91L17.99 18.91L17.99 15.66L15.47 15.66Q13.44 15.66 13.26 16.02L13.26 16.02L13.20 16.00L13.03 10.90Q13.57 11.05 17.46 11.05L17.46 11.05L19.77 11.05Q21.91 11.05 23.28 10.76L23.28 10.76ZM33.67 21.78L41.64 21.78Q42.85 21.78 43.32 21.54L43.32 21.54L43.40 21.56L43.20 26.46L28.57 26.46L28.57 0.35Q29.10 0.39 29.75 0.41L29.75 0.41L31.11 0.45Q32.48 0.49 34.08 0.49L34.08 0.49Q38.55 0.49 42.93 0.33L42.93 0.33Q42.71 2.05 42.71 4.92L42.71 4.92Q42.71 5.23 42.75 5.39L42.75 5.39L42.71 5.45Q41.70 5.16 39.82 5.16L39.82 5.16L33.67 5.16L33.67 10.14L38.30 10.14Q40.45 10.14 40.88 10.02L40.88 10.02L40.94 14.84Q40 14.75 38.52 14.75L38.52 14.75L33.67 14.75L33.67 21.78ZM50.74 23.38Q48.96 21.68 47.94 19.30Q46.91 16.91 46.91 14.07Q46.91 11.23 47.87 8.69Q48.83 6.15 50.61 4.22Q52.38 2.29 54.90 1.14Q57.42 0 60.55 0L60.55 0Q65.94 0 69.63 3.40L69.63 3.40Q73.57 7.03 73.57 13.20L73.57 13.20Q73.57 19.18 69.51 23.14L69.51 23.14Q67.01 25.59 63.55 26.50L63.55 26.50Q61.86 26.95 59.58 26.95Q57.30 26.95 54.91 26.02Q52.52 25.08 50.74 23.38ZM52.34 13.81L52.34 13.81Q52.34 15.63 52.95 17.15Q53.55 18.67 54.63 19.77L54.63 19.77Q56.91 22.07 60.51 22.07L60.51 22.07Q63.93 22.07 66.00 19.86L66.00 19.86Q68.11 17.58 68.11 13.63L68.11 13.63Q68.11 9.92 66.09 7.44L66.09 7.44Q63.93 4.79 60.16 4.79L60.16 4.79Q56.50 4.79 54.36 7.48L54.36 7.48Q52.34 10 52.34 13.81ZM99.94 10.76L100 10.80Q99.63 11.46 99.63 13.98L99.63 13.98L99.63 20.04Q99.63 22.79 96.78 24.82L96.78 24.82Q93.83 26.95 89.55 26.95L89.55 26.95Q83.61 26.95 80.08 23.22L80.08 23.22Q76.66 19.67 76.66 14.16L76.66 14.16Q76.66 8.30 80.14 4.39L80.14 4.39Q84.02 0 90.84 0L90.84 0Q95.39 0 98.05 1.76L98.05 1.76L97.73 7.52L97.58 7.56Q96.89 6.37 94.88 5.61L94.88 5.61Q92.97 4.88 90.87 4.88Q88.77 4.88 87.20 5.55Q85.63 6.21 84.53 7.44L84.53 7.44Q82.23 9.96 82.23 14.10L82.23 14.10Q82.23 17.71 84.26 19.90L84.26 19.90Q86.29 22.07 89.49 22.07L89.49 22.07Q93.03 22.07 94.26 20.23L94.26 20.23Q94.65 19.65 94.65 18.91L94.65 18.91L94.65 15.66L92.13 15.66Q90.10 15.66 89.92 16.02L89.92 16.02L89.86 16.00L89.69 10.90Q90.23 11.05 94.12 11.05L94.12 11.05L96.43 11.05Q98.57 11.05 99.94 10.76L99.94 10.76ZM108.96 20.84L107.13 26.62Q105.45 26.46 103.20 26.46L103.20 26.46L101.66 26.46L110.16 2.66Q110.72 1.05 110.72 0.79Q110.72 0.53 110.70 0.47L110.70 0.47L110.72 0.43Q111.99 0.49 113.42 0.49L113.42 0.49Q114.59 0.49 116.23 0.45L116.23 0.45L116.25 0.49Q116.21 0.57 116.21 0.70L116.21 0.70Q116.21 1.07 116.80 2.68L116.80 2.68L125.47 26.52Q125.08 26.50 124.55 26.50L124.55 26.50Q124.55 26.50 123.54 26.46L123.54 26.46Q123.05 26.46 122.66 26.46L122.66 26.46L119.63 26.46L117.79 20.84L108.96 20.84ZM110.45 16.15L116.27 16.15L113.32 7.07L110.45 16.15ZM137.99 4.86L137.99 26.58Q137.05 26.46 133.16 26.46L133.16 26.46L132.54 26.46L132.54 4.86L128.67 4.86Q126.95 4.86 126.64 5.04Q126.33 5.21 126.15 5.35L126.15 5.35L126.09 5.33L126.09 0.33L126.15 0.27Q126.80 0.49 129.63 0.49L129.63 0.49L141.88 0.49Q143.59 0.49 143.91 0.31Q144.22 0.14 144.39 0L144.39 0L144.45 0.02L144.45 5.02L144.39 5.08Q143.75 4.86 140.92 4.86L140.92 4.86L137.99 4.86ZM153.75 21.78L161.72 21.78Q162.93 21.78 163.40 21.54L163.40 21.54L163.48 21.56L163.28 26.46L148.65 26.46L148.65 0.35Q149.18 0.39 149.82 0.41L149.82 0.41L151.19 0.45Q152.56 0.49 154.16 0.49L154.16 0.49Q158.63 0.49 163.01 0.33L163.01 0.33Q162.79 2.05 162.79 4.92L162.79 4.92Q162.79 5.23 162.83 5.39L162.83 5.39L162.79 5.45Q161.78 5.16 159.90 5.16L159.90 5.16L153.75 5.16L153.75 10.14L158.38 10.14Q160.53 10.14 160.96 10.02L160.96 10.02L161.02 14.84Q160.08 14.75 158.59 14.75L158.59 14.75L153.75 14.75L153.75 21.78Z" transform="translate(12 12) scale(1)"></path></svg>